<svg width="384" height="512" viewBox="0 0 384 512" xmlns="http://www.w3.org/2000/svg" xmlns:xlink="http://www.w3.org/1999/xlink">
    <path id="Path" fill="#e1933c" fill-rule="evenodd" stroke="#393838" stroke-width="21" stroke-linecap="round" stroke-linejoin="round" d="M 215.786591 23.351563 C 215.786591 23.351563 98.801674 21.473022 81.803864 21.200073 C 21.811596 20.236725 23.297552 52.264709 22.462652 104.258026 C 21.073503 190.766876 22.587183 312.129272 22.115429 437.295349 C 21.974922 474.574432 57.495609 491.702881 94.239006 492.460449 C 172.222427 494.068359 287.278351 491.559753 287.278351 491.559753 C 287.278351 491.559753 361.530945 494.731964 361.601563 409.742523 C 361.689667 303.742554 361.407318 172.708862 361.407318 172.708862 L 215.786591 23.351563 L 215.786591 23.351563 Z"/>
    <path id="Shape" fill="none" stroke="#ffffff" stroke-width="32" stroke-linecap="round" stroke-linejoin="round" d="M 110 270 L 264 270 M 162 330 L 220 330"/>
    <path id="Line" fill="none" stroke="#ffffff" stroke-width="33" stroke-linecap="round" stroke-linejoin="round" d="M 110 395 L 264 394.999084"/>
    <path id="path1" fill="none" stroke="#393838" stroke-width="21" stroke-linecap="round" stroke-linejoin="round" d="M 207 23 L 208 175 L 349 175"/>
</svg>
