<?xml version="1.0" encoding="UTF-8"?>
<!-- Generated by Pixelmator Pro 2.4.3 -->
<svg width="624" height="561" viewBox="0 0 624 561" xmlns="http://www.w3.org/2000/svg" xmlns:xlink="http://www.w3.org/1999/xlink">
    <path id="Shape" fill="#1eb100" stroke="none" d="M 261.462006 417.393005 C 208.791 444.107971 184.725006 453.78302 174 456.126038 C 163.274994 458.472015 145.725006 460.22699 135 460.026001 C 122.997002 459.800995 108.828003 457.128021 98.145004 453.074982 C 87.090004 448.880981 74.475006 440.643005 63.381004 430.371002 C 53.778004 421.481995 41.832001 406.457977 36.743999 396.876038 C 31.671001 387.317993 25.317001 371.400024 22.622999 361.5 C 19.929001 351.599976 16.971001 327.299988 16.049999 307.5 C 14.697001 278.355011 15.519 265.998016 20.375999 242.610016 C 23.877001 225.752991 31.386 203.022003 38.409 188.033997 C 45.030003 173.910004 55.215004 155.166016 61.043999 146.38501 C 66.873001 137.601013 79.238998 122.025024 88.521004 111.768005 C 97.803009 101.507996 116.448006 85.832977 129.948013 76.932007 C 143.451004 68.033997 162.492004 57.81601 172.259995 54.228027 C 182.024994 50.640015 199.326004 45.744019 210.705002 43.353027 C 222.084 40.958984 243.147018 39 257.510986 39 C 273.612 39 291.225006 41.106018 303.432007 44.48999 C 314.325012 47.511047 329.820007 53.832001 337.869019 58.53598 C 345.915009 63.240021 359.25 74.105988 367.5 82.683014 C 375.75 91.257019 387.597015 106.875 393.828003 117.386993 C 400.062012 127.898987 407.982025 144.198029 411.429016 153.609009 L 417.701996 170.718018 L 433.986023 149.904022 C 450.27301 129.089996 450.27301 129.089996 479.38501 120.179993 C 495.398987 115.281006 520.650024 107.867981 535.5 103.707001 C 550.349976 99.549011 575.070007 92.814026 590.433044 88.740021 L 618.365967 81.335999 L 608.039978 99.917999 C 602.361023 110.139008 583.632019 142.800018 566.41803 172.5 C 549.203979 202.200012 520.554016 254.174988 502.746002 288 C 484.94101 321.825012 460.869019 367.049988 449.253021 388.5 C 437.636993 409.949982 422.21701 436.479004 414.987 447.455994 C 403.451996 464.972992 398.646027 469.238983 375.671997 482.357971 C 361.278015 490.580994 336 505.310974 319.5 515.093994 C 303 524.877014 281.894989 537.195007 272.597992 542.463013 C 255.696014 552.041992 254.613007 554.156982 255 537 C 255.212997 527.52002 258.111023 486.434998 259.650024 458.445007 Z M 302.190002 212.325012 C 303.981018 290.736023 304.29599 349.470001 304.046997 393.437988 L 303.596985 473.372986 L 338.054993 453.437988 C 372.51001 433.5 372.51001 433.5 388.613983 406.5 C 397.470032 391.650024 423.812988 343.049988 447.156006 298.5 C 470.496002 253.950012 503.343018 203.763 513 186 C 522.462036 168.590973 539.468994 143.346008 543 138 C 552.554993 123.527985 515.301025 148.569 501 156 C 487.59903 162.963013 475.781982 168.917999 470.585999 174.464996 C 466.233002 179.112 454.470032 195.576019 444.444 211.049988 C 434.421021 226.527008 415.167023 259.281006 401.65802 283.84201 C 388.148987 308.403015 374.490021 332.549988 371.307007 337.5 C 365.516998 346.5 365.516998 346.5 367.194 319.194031 C 368.118011 304.175995 370.359009 269.196014 372.179993 241.463989 C 374.001007 213.729004 374.367004 188.568024 372.993011 185.546997 C 370.70401 180.501007 367.709991 181.371002 336.345001 196.188019 Z M 138.12001 416.867981 C 143.960999 416.940002 156.645004 414.941986 166.307999 412.425018 C 175.971008 409.90802 194.817017 402.222015 208.188019 395.346008 C 226.440018 385.962036 239.115005 376.290009 259.037994 356.541016 C 273.635986 342.072021 285.029999 328.593018 284.364014 326.588989 C 283.695007 324.582001 273.777008 318.666016 262.322998 313.437012 C 241.5 303.929993 241.5 303.929993 227.697006 318.177002 C 220.103989 326.013 208.197006 335.328003 201.240005 338.877014 C 194.283005 342.425995 182.186996 346.088989 174.362991 347.015991 C 163.407013 348.315002 157.274994 347.241028 147.695999 342.356995 C 139.455002 338.151001 132.483002 331.275024 127.032005 321.971985 C 121.401001 312.363007 118.403999 302.390991 117.534004 290.358002 C 116.834999 280.689026 117.905998 264.389984 119.916 254.139008 C 121.922997 243.888 127.070999 228.075012 131.348999 219 C 135.630005 209.924988 145.964996 195.68399 154.317001 187.353027 C 162.666 179.019012 176.178009 168.984009 184.337997 165.050995 C 192.498001 161.115021 206.274017 157.308014 214.950012 156.588013 C 223.623001 155.867981 233.823013 156.074982 237.612015 157.046997 C 241.401016 158.019012 249.059998 161.72699 253.016998 166.77301 C 265.707001 182.963989 261.531006 174.734985 271.016998 167.816986 C 276.231018 164.01001 293.772003 150.88501 309.996002 138.651001 C 339.492004 116.409027 339.492004 116.409027 333.092987 109.59903 C 329.571014 105.85199 319.674011 98.940002 311.096985 94.238983 C 297.393005 86.72699 291.674988 85.539001 264 84.461975 C 241.352997 83.576996 226.643997 84.632996 211.662003 88.218018 C 200.202011 90.960022 181.977005 97.527008 171.162003 102.81601 C 157.712997 109.394989 143.826004 120.023987 127.211998 136.46701 C 113.289001 150.242981 97.676994 169.46402 90.636002 181.5 C 83.876999 193.049988 74.652 213.299988 70.137001 226.5 C 63.785999 245.061005 61.611004 257.979004 60.542999 283.5 C 59.784 301.650024 60.615002 325.136993 62.388 335.694031 C 64.164001 346.251007 69.831001 363.455994 74.987999 373.929016 C 80.363998 384.848999 88.761002 396.326965 94.674004 400.835999 C 100.347008 405.161987 110.051994 410.511017 116.244003 412.718994 C 122.436005 414.929993 132.278992 416.796021 138.12001 416.867981 Z"/>
</svg>
