<?xml version="1.0" encoding="UTF-8"?>
<!-- Generated by Pixelmator Pro 2.4.3 -->
<svg width="624" height="561" viewBox="0 0 624 561" xmlns="http://www.w3.org/2000/svg" xmlns:xlink="http://www.w3.org/1999/xlink">
    <path id="Shape" fill="#1eb100" stroke="none" d="M 262.293427 354.764832 C 222.933533 374.728394 204.949524 381.958313 196.934967 383.709198 C 188.92041 385.462311 175.805679 386.773773 167.791122 386.623566 C 158.821533 386.455444 148.233353 384.457977 140.250183 381.42923 C 131.989014 378.295166 122.562103 372.139069 114.271797 364.463043 C 107.095688 357.820496 98.168701 346.593353 94.366547 339.432983 C 90.5756 332.290466 85.8274 320.395294 83.814232 312.997253 C 81.801064 305.599182 79.590614 287.440308 78.902367 272.644196 C 77.891304 250.864807 78.505562 241.630676 82.135094 224.15332 C 84.75132 211.556458 90.362625 194.570068 95.610764 183.369873 C 100.558495 172.815308 108.169525 158.808319 112.525406 152.24646 C 116.881294 145.682404 126.122131 134.042786 133.058365 126.37793 C 139.994614 118.710876 153.927612 106.997253 164.015869 100.345764 C 174.106369 93.696472 188.335297 86.060791 195.634705 83.379547 C 202.93187 80.698334 215.860535 77.039642 224.363815 75.252899 C 232.867096 73.463928 248.607025 72 259.340912 72 C 271.372864 72 284.534668 73.573761 293.656677 76.10257 C 301.796783 78.360107 313.375885 83.083618 319.390717 86.598816 C 325.40332 90.114014 335.368256 98.233948 341.533295 104.643372 C 347.698364 111.050537 356.551361 122.721497 361.207642 130.576904 C 365.86618 138.432281 371.784637 150.612213 374.360504 157.644806 L 379.048157 170.430023 L 391.216858 154.87616 C 403.387787 139.322296 403.387787 139.322296 425.142517 132.664032 C 437.109436 129.003143 455.978973 123.463531 467.07605 120.354126 C 478.173126 117.246948 496.645874 112.21405 508.126312 109.169617 L 529 103.63678 L 521.28363 117.522705 C 517.039856 125.160614 503.044067 149.567505 490.180389 171.761658 C 477.316742 193.955811 455.907257 232.795593 442.599701 258.072296 C 429.294434 283.348969 411.305939 317.144623 402.625549 333.173767 C 393.94516 349.20285 382.422119 369.027405 377.019287 377.230286 C 368.399445 390.320343 364.808044 393.50824 347.640076 403.311768 C 336.883759 409.456635 317.994049 420.46405 305.66394 427.774689 C 293.333862 435.085327 277.562561 444.290283 270.615112 448.226929 C 257.984619 455.385132 257.175323 456.965607 257.464508 444.144562 C 257.623688 437.060364 259.789307 406.358459 260.939362 385.442139 Z M 292.728577 201.522003 C 294.066956 260.116852 294.302338 304.007477 294.116272 336.8638 L 293.779968 396.597473 L 319.529694 381.7005 C 345.277161 366.80127 345.277161 366.80127 357.31134 346.624756 C 363.92926 335.527679 383.614777 299.209961 401.058502 265.918701 C 418.499969 232.627472 443.045837 195.12381 450.262299 181.849915 C 457.333069 168.840515 470.041992 149.975494 472.680634 145.98056 C 479.820892 135.165924 451.981781 153.87851 441.294952 159.431549 C 431.280701 164.634857 422.450073 169.0849 418.56723 173.230042 C 415.314331 176.702637 406.524109 189.005829 399.03186 200.569214 C 391.541931 212.134857 377.153839 236.611206 367.058838 254.965088 C 356.963837 273.319 346.756775 291.363525 344.378204 295.062561 C 340.051453 301.788055 340.051453 301.788055 341.304657 281.382874 C 341.995117 270.160248 343.669769 244.020477 345.030579 223.296936 C 346.391357 202.571167 346.664886 183.768921 345.638123 181.511383 C 343.927582 177.740631 341.690247 178.390747 318.251862 189.463196 Z M 170.12262 354.372528 C 174.487473 354.426331 183.965958 352.933289 191.186905 351.052399 C 198.407852 349.171478 212.491074 343.427917 222.482925 338.289612 C 236.122253 331.277161 245.593994 324.0495 260.482025 309.291504 C 271.390778 298.479126 279.905273 288.406555 279.407593 286.908997 C 278.907654 285.40921 271.496155 280.988312 262.936829 277.08078 C 247.376251 269.97641 247.376251 269.97641 237.061569 280.622894 C 231.387482 286.478577 222.489655 293.439484 217.290833 296.091553 C 212.09201 298.743652 203.052933 301.480927 197.206223 302.173645 C 189.019058 303.144379 184.436737 302.341797 177.278564 298.692108 C 171.120239 295.549042 165.910217 290.410767 161.836807 283.458801 C 157.628876 276.278229 155.389282 268.826355 154.739151 259.834381 C 154.216812 252.608948 155.017136 240.429047 156.519165 232.768677 C 158.018951 225.108337 161.865952 213.291626 165.062805 206.510071 C 168.261902 199.728516 175.985016 189.086548 182.226288 182.860992 C 188.465317 176.633148 198.562546 169.134216 204.660324 166.19516 C 210.758118 163.253876 221.052628 160.408997 227.536011 159.870941 C 234.017151 159.332886 241.639404 159.487579 244.47084 160.213959 C 247.302277 160.940308 253.025665 163.711212 255.982651 167.481995 C 265.465607 179.581177 262.344971 173.431793 269.433655 168.262146 C 273.329987 165.417236 286.437988 155.609222 298.561829 146.46701 C 320.603546 129.846069 320.603546 129.846069 315.821716 124.757111 C 313.189789 121.957031 305.793976 116.79184 299.384583 113.2789 C 289.14386 107.665344 284.870941 106.777588 264.190002 105.972748 C 247.266388 105.311401 236.274673 106.100555 225.078964 108.779541 C 216.515152 110.828583 202.896011 115.735962 194.814194 119.688324 C 184.764053 124.604645 174.386597 132.547455 161.971313 144.834961 C 151.566956 155.129456 139.900452 169.49292 134.63887 178.487152 C 129.588013 187.118225 122.694374 202.25058 119.320404 212.114685 C 114.57444 225.984894 112.949112 235.638245 112.151016 254.709534 C 111.583832 268.272644 112.204826 285.823944 113.529747 293.712982 C 114.856918 301.60199 119.091743 314.458923 122.945457 322.285156 C 126.962822 330.445435 133.237717 339.022675 137.656372 342.392151 C 141.895691 345.624878 149.14801 349.622101 153.775162 351.272095 C 158.402313 352.924316 165.757767 354.318726 170.12262 354.372528 Z"/>
</svg>
