<?xml version="1.0" encoding="UTF-8"?>
<svg width="208px" height="187px" viewBox="0 0 208 187" xmlns="http://www.w3.org/2000/svg" xmlns:xlink="http://www.w3.org/1999/xlink" version="1.1">
 <!-- Generated by Pixelmator Pro 2.1.3 -->
 <path id="Shape" d="M87.154 139.131 C69.597 148.036 61.575 151.261 58 152.042 54.425 152.824 48.575 153.409 45 153.342 40.999 153.267 36.276 152.376 32.715 151.025 29.03 149.627 24.825 146.881 21.127 143.457 17.926 140.494 13.944 135.486 12.248 132.292 10.557 129.106 8.439 123.8 7.541 120.5 6.643 117.2 5.657 109.1 5.35 102.5 4.899 92.785 5.173 88.666 6.792 80.87 7.959 75.251 10.462 67.674 12.803 62.678 15.01 57.97 18.405 51.722 20.348 48.795 22.291 45.867 26.413 40.675 29.507 37.256 32.601 33.836 38.816 28.611 43.316 25.644 47.817 22.678 54.164 19.272 57.42 18.076 60.675 16.88 66.442 15.248 70.235 14.451 74.028 13.653 81.049 13 85.837 13 91.204 13 97.075 13.702 101.144 14.83 104.775 15.837 109.94 17.944 112.623 19.512 115.305 21.08 119.75 24.702 122.5 27.561 125.25 30.419 129.199 35.625 131.276 39.129 133.354 42.633 135.994 48.066 137.143 51.203 L139.234 56.906 144.662 49.968 C150.091 43.03 150.091 43.03 159.795 40.06 165.133 38.427 173.55 35.956 178.5 34.569 183.45 33.183 191.69 30.938 196.811 29.58 L206.122 27.112 202.68 33.306 C200.787 36.713 194.544 47.6 188.806 57.5 183.068 67.4 173.518 84.725 167.582 96 161.647 107.275 153.623 122.35 149.751 129.5 145.879 136.65 140.739 145.493 138.329 149.152 134.484 154.991 132.882 156.413 125.224 160.786 120.426 163.527 112 168.437 106.5 171.698 101 174.959 93.965 179.065 90.866 180.821 85.232 184.014 84.871 184.719 85 179 85.071 175.84 86.037 162.145 86.55 152.815 Z M100.73 70.775 C101.327 96.912 101.432 116.49 101.349 131.146 L101.199 157.791 112.685 151.146 C124.17 144.5 124.17 144.5 129.538 135.5 132.49 130.55 141.271 114.35 149.052 99.5 156.832 84.65 167.781 67.921 171 62 174.154 56.197 179.823 47.782 181 46 184.185 41.176 171.767 49.523 167 52 162.533 54.321 158.594 56.306 156.862 58.155 155.411 59.704 151.49 65.192 148.148 70.35 144.807 75.509 138.389 86.427 133.886 94.614 129.383 102.801 124.83 110.85 123.769 112.5 121.839 115.5 121.839 115.5 122.398 106.398 122.706 101.392 123.453 89.732 124.06 80.488 124.667 71.243 124.789 62.856 124.331 61.849 123.568 60.167 122.57 60.457 112.115 65.396 Z M46.04 138.956 C47.987 138.98 52.215 138.314 55.436 137.475 58.657 136.636 64.939 134.074 69.396 131.782 75.48 128.654 79.705 125.43 86.346 118.847 91.212 114.024 95.01 109.531 94.788 108.863 94.565 108.194 91.259 106.222 87.441 104.479 80.5 101.31 80.5 101.31 75.899 106.059 73.368 108.671 69.399 111.776 67.08 112.959 64.761 114.142 60.729 115.363 58.121 115.672 54.469 116.105 52.425 115.747 49.232 114.119 46.485 112.717 44.161 110.425 42.344 107.324 40.467 104.121 39.468 100.797 39.178 96.786 38.945 93.563 39.302 88.13 39.972 84.713 40.641 81.296 42.357 76.025 43.783 73 45.21 69.975 48.655 65.228 51.439 62.451 54.222 59.673 58.726 56.328 61.446 55.017 64.166 53.705 68.758 52.436 71.65 52.196 74.541 51.956 77.941 52.025 79.204 52.349 80.467 52.673 83.02 53.909 84.339 55.591 88.569 60.988 87.177 58.245 90.339 55.939 92.077 54.67 97.924 50.295 103.332 46.217 113.164 38.803 113.164 38.803 111.031 36.533 109.857 35.284 106.558 32.98 103.699 31.413 99.131 28.909 97.225 28.513 88 28.154 80.451 27.859 75.548 28.211 70.554 29.406 66.734 30.32 60.659 32.509 57.054 34.272 52.571 36.465 47.942 40.008 42.404 45.489 37.763 50.081 32.559 56.488 30.212 60.5 27.959 64.35 24.884 71.1 23.379 75.5 21.262 81.687 20.537 85.993 20.181 94.5 19.928 100.55 20.205 108.379 20.796 111.898 21.388 115.417 23.277 121.152 24.996 124.643 26.788 128.283 29.587 132.109 31.558 133.612 33.449 135.054 36.684 136.837 38.748 137.573 40.812 138.31 44.093 138.932 46.04 138.956 Z" fill="#1eb100" fill-opacity="1" stroke="none"/>
</svg>
