<?xml version="1.0" encoding="UTF-8"?>
<!-- Generated by Pixelmator Pro 2.4.3 -->
<svg width="624" height="561" viewBox="0 0 624 561" xmlns="http://www.w3.org/2000/svg" xmlns:xlink="http://www.w3.org/1999/xlink">
    <text id="LCG" xml:space="preserve"><tspan x="57" y="282" font-family="DIN Alternate" font-size="288" font-weight="700" fill="#ff4300" letter-spacing="-2.88" xml:space="preserve">L</tspan><tspan font-family="DIN Alternate" font-size="288" font-weight="700" fill="#ff4300" letter-spacing="11.52" xml:space="preserve">CG</tspan></text>
    <path id="Rounded-Rectangle" fill="#ff4300" fill-rule="evenodd" stroke="none" d="M 96 322 C 84.954399 322 76 330.954407 76 342 L 76 346 C 76 357.045593 84.954399 366 96 366 L 193 366 C 204.045593 366 213 357.045593 213 346 L 213 342 C 213 330.954407 204.045593 322 193 322 Z"/>
    <path id="Rounded-Rectangle-copy-2" fill="#ff4300" fill-rule="evenodd" stroke="none" d="M 425 322 C 413.954407 322 405 330.954407 405 342 L 405 346 C 405 357.045593 413.954407 366 425 366 L 522 366 C 533.045593 366 542 357.045593 542 346 L 542 342 C 542 330.954407 533.045593 322 522 322 Z"/>
</svg>
