<?xml version="1.0" encoding="UTF-8"?>
<!-- Generated by Pixelmator Pro 2.4.3 -->
<svg width="624" height="561" viewBox="0 0 624 561" xmlns="http://www.w3.org/2000/svg" xmlns:xlink="http://www.w3.org/1999/xlink">
    <text id="LCG" xml:space="preserve"><tspan x="57" y="382" font-family="DIN Alternate" font-size="288" font-weight="700" fill="#ff4300" letter-spacing="-2.88" xml:space="preserve">L</tspan><tspan font-family="DIN Alternate" font-size="288" font-weight="700" fill="#ff4300" letter-spacing="11.52" xml:space="preserve">CG</tspan></text>
    <path id="Rounded-Rectangle" fill="#ff4300" fill-rule="evenodd" stroke="none" d="M 96 422 C 84.954399 422 76 430.954407 76 442 L 76 446 C 76 457.045593 84.954399 466 96 466 L 193 466 C 204.045593 466 213 457.045593 213 446 L 213 442 C 213 430.954407 204.045593 422 193 422 Z"/>
    <path id="Rounded-Rectangle-copy-2" fill="#ff4300" fill-rule="evenodd" stroke="none" d="M 425 422 C 413.954407 422 405 430.954407 405 442 L 405 446 C 405 457.045593 413.954407 466 425 466 L 522 466 C 533.045593 466 542 457.045593 542 446 L 542 442 C 542 430.954407 533.045593 422 522 422 Z"/>
</svg>
